<svg width="733" height="67" viewBox="0 0 733 67" fill="none" xmlns="http://www.w3.org/2000/svg">
<g clip-path="url(#clip0_668_1711)">
<path d="M0.799805 64.7999V1.8999H20.0998V64.7999H0.799805ZM57.6998 64.7999L4.09981 1.8999H27.5998L74.4998 56.3999L74.8998 64.7999H57.6998ZM130 1.8999L76.3998 64.7999H60.4998L59.0998 57.6999L107.1 1.8999H130ZM133.2 1.8999V64.7999H113.7V1.8999H133.2Z" fill="#E31937"/>
<path d="M190 1.8999H212.1L164 64.7999H141.9L190 1.8999ZM167.6 53.5999V40.5999H237.3V53.5999H167.6ZM191.3 3.3999L191.9 1.8999H213.1L261.2 64.7999H238.2L191.3 3.3999Z" fill="#E31937"/>
<path fill-rule="evenodd" clip-rule="evenodd" d="M306.2 45.1996C303.333 45.0663 300.5 44.9329 297.7 44.7996C294.9 44.6663 292.167 44.5329 289.5 44.3996V64.7996H270V2.9996C273.4 2.66627 277.533 2.33294 282.4 1.9996C287.333 1.66627 292.633 1.33294 298.3 0.999603C303.9 0.732937 309.467 0.599609 315 0.599609C322.067 0.599609 328.6 0.899603 334.6 1.4996C340.6 2.03294 345.833 3.0996 350.3 4.6996C354.767 6.23293 358.233 8.4996 360.7 11.4996C363.167 14.4996 364.4 18.3996 364.4 23.1996C364.4 27.9996 363.167 31.8663 360.7 34.7996C358.233 37.7329 354.767 39.9329 350.3 41.3996C345.833 42.9329 340.6 43.9663 334.6 44.4996C333.2 44.6329 331.767 44.7329 330.3 44.7996L332.6 46.6996C333.8 47.4996 335 48.2663 336.2 48.9996C337.467 49.7329 338.8 50.3329 340.2 50.7996C341.667 51.3329 343.2 51.7329 344.8 51.9996C346.467 52.2663 348.2 52.3996 350 52.3996C351.667 52.3996 353.3 52.2996 354.9 52.0996C356.5 51.9663 358.1 51.7329 359.7 51.3996C361.233 51.1329 362.767 50.8329 364.3 50.4996V64.3996C362.5 64.9996 360.167 65.4663 357.3 65.7996C354.5 66.0663 351.833 66.1996 349.3 66.1996C345.967 66.1996 342.8 65.8996 339.8 65.2996C336.8 64.6996 333.933 63.8329 331.2 62.6996C328.467 61.5663 325.867 60.1996 323.4 58.5996C320.933 56.9329 318.5 55.0996 316.1 53.0996L306.9 45.1996C306.7 45.1996 306.467 45.1996 306.2 45.1996ZM317.2 30.8996C326 30.8996 332.667 30.4329 337.2 29.4996C341.667 28.6329 343.9 26.5329 343.9 23.1996C343.9 19.7996 341.667 17.5996 337.2 16.5996C332.667 15.5996 326 15.0996 317.2 15.0996C311.733 15.0996 306.567 15.2329 301.7 15.4996C296.833 15.6996 292.767 15.8996 289.5 16.0996V29.9996C292.767 30.2663 296.833 30.4663 301.7 30.5996C306.567 30.7996 311.733 30.8996 317.2 30.8996Z" fill="#E31937"/>
<path d="M427.9 51.1998C435.1 51.1998 441.966 50.7331 448.5 49.7998C455.033 48.8665 460.766 47.8331 465.7 46.6998V61.8998C459.966 63.3665 453.9 64.4665 447.5 65.1998C441.033 65.8665 434.5 66.1998 427.9 66.1998C419.566 66.1998 412.1 65.5665 405.5 64.2998C398.966 62.9665 393.433 60.9331 388.9 58.1998C384.366 55.5331 380.933 52.1331 378.6 47.9998C376.266 43.8665 375.1 38.9665 375.1 33.2998C375.1 27.6331 376.266 22.7331 378.6 18.5998C380.933 14.4665 384.366 11.0331 388.9 8.2998C393.433 5.63314 398.966 3.63314 405.5 2.2998C412.1 0.966471 419.566 0.299805 427.9 0.299805C434.5 0.299805 441.033 0.633138 447.5 1.2998C453.9 1.96647 459.966 3.03313 465.7 4.4998V19.7998C460.766 18.5998 455.033 17.5665 448.5 16.6998C441.966 15.7665 435.1 15.2998 427.9 15.2998C423.033 15.2998 418.6 15.6665 414.6 16.3998C410.6 17.0665 407.2 18.0998 404.4 19.4998C401.533 20.9665 399.366 22.8331 397.9 25.0998C396.366 27.3665 395.6 30.0998 395.6 33.2998C395.6 36.4331 396.366 39.1331 397.9 41.3998C399.366 43.6665 401.533 45.5331 404.4 46.9998C407.2 48.4665 410.6 49.5331 414.6 50.1998C418.6 50.8665 423.033 51.1998 427.9 51.1998Z" fill="#E31937"/>
<path fill-rule="evenodd" clip-rule="evenodd" d="M531.5 66.2C522.566 66.2 514.7 65.5667 507.9 64.3C501.033 62.9667 495.3 60.9333 490.7 58.2C486.1 55.5333 482.633 52.1333 480.3 48C477.966 43.8667 476.8 39 476.8 33.4C476.8 27.8 477.966 22.9333 480.3 18.8C482.633 14.6 486.1 11.1667 490.7 8.5C495.3 5.76667 501.033 3.76667 507.9 2.5C514.7 1.16667 522.566 0.5 531.5 0.5C540.5 0.5 548.433 1.16667 555.3 2.5C562.1 3.76667 567.8 5.76667 572.4 8.5C577 11.1667 580.466 14.6 582.8 18.8C585.133 22.9333 586.3 27.8 586.3 33.4C586.3 39 585.133 43.8667 582.8 48C580.466 52.1333 577 55.5333 572.4 58.2C567.8 60.9333 562.1 62.9667 555.3 64.3C548.433 65.5667 540.5 66.2 531.5 66.2ZM531.5 51.7C539.1 51.7 545.4 51.0333 550.4 49.7C555.467 48.3 559.266 46.2333 561.8 43.5C564.333 40.7667 565.6 37.4 565.6 33.4C565.6 29.2667 564.333 25.8667 561.8 23.2C559.266 20.4667 555.467 18.4333 550.4 17.1C545.4 15.7667 539.1 15.1 531.5 15.1C523.966 15.1 517.666 15.7667 512.6 17.1C507.6 18.4333 503.833 20.4667 501.3 23.2C498.766 25.8667 497.5 29.2667 497.5 33.4C497.5 37.4 498.766 40.7667 501.3 43.5C503.833 46.2333 507.6 48.3 512.6 49.7C517.666 51.0333 523.966 51.7 531.5 51.7Z" fill="#E31937"/>
<path d="M599.8 64.7999V1.8999H619.2V64.7999H599.8ZM656.7 64.7999L603.1 1.8999H626.6L673.4 56.3999L673.8 64.7999H656.7ZM729 1.8999L675.4 64.7999H659.5L658.2 57.6999L706.1 1.8999H729ZM732.3 1.8999V64.7999H712.7V1.8999H732.3Z" fill="#E31937"/>
</g>
<defs>
<clipPath id="clip0_668_1711">
<rect width="733" height="67" fill="white"/>
</clipPath>
</defs>
</svg>
