<?xml version="1.0" encoding="UTF-8"?>
<svg id="Layer_1" xmlns="http://www.w3.org/2000/svg" version="1.1" viewBox="0 0 500 500">
  <!-- Generator: Adobe Illustrator 29.6.1, SVG Export Plug-In . SVG Version: 2.1.1 Build 9)  -->
  <path d="M350.85,133.7c4.48-6.62,17.19-23.63,15.89-31.44-.25-1.49-.88-1.95-1.78-3.1-2.67-1.27-4.73-1.43-7.63-.78-4.97,7.48-17.11,23.75-15.3,32.72,1.55,1.77,2.52,2.86,5.01,3.05,1.22.1,2.61-.22,3.81-.45Z"/>
  <path d="M402.82,271.68c2.73,1.03,4.69,1.02,7.46.19,1.08-2.47,2.29-4.52,1.01-7.24-3.24-6.87-23.26-16.63-30.27-18.14-1.92-.42-3.83.41-5.58,1.12-.89,2.2-1.73,4.07-.75,6.39,2.88,6.81,21.31,15.1,28.13,17.68Z"/>
  <path d="M414.78,141.61c.33-1.27.08-1.78-.19-3.01-1.89-2.04-4.24-3.12-7.06-3.2-.37-.01-.73,0-1.1,0-7.13,4.82-30.93,18.94-32.46,26.42-.37,1.81.07,2.09,1.05,3.52,2.41,1.13,4.11,1.85,6.8,1.91,7.09-4.41,31.02-18.18,32.96-25.64Z"/>
  <path d="M389.94,200c-1.58,1.69-3.65,3.53-3.67,6.03-.02,1.92.86,3.33,2.4,4.4,6.07,4.23,33,4.02,41.29,3.82,1.62-2.2,2.75-3.58,2.95-6.36-.76-2.21-1.18-3.35-3.29-4.55-6.34-3.59-31.72-3.94-39.67-3.34Z"/>
  <path d="M112.63,301.47c2.5,8.64,4.68,16.9,13.15,21.62,3.28,1.83,6.89,2.85,10.48,3.9,12.62,18.28,25.13,36.63,37.53,55.06,7.13,10.52,14.23,23.7,23.55,32.29,4.62,4.26,10.36,7.32,16.58,8.4,8.61,1.5,17.27-1.25,24.16-6.45,1.08-.81,2.13-1.67,3.13-2.59,6-7.04,9.93-14.31,9.17-23.93-1.06-13.42-35.29-67.25-44.33-81.44l31.73-8.07c20.77,5.83,41.41,12.08,61.93,18.75,12.89,4.12,26.3,9.42,39.53,12.07,1.96.39,4.39.83,6.24-.22,1.28-.73,2.61-1.79,3-3.27,1.54-5.86-16.41-71-19.19-81.88,13.04-6.62,23.13-14.24,27.97-28.63.21-.63.41-1.27.59-1.92.18-.64.35-1.29.5-1.94.15-.65.28-1.31.4-1.97.12-.66.22-1.32.3-1.98.08-.66.15-1.33.21-2,.05-.67.09-1.34.1-2.01.02-.67.02-1.34,0-2.01-.01-.67-.05-1.34-.09-2.01-.05-.67-.11-1.33-.19-2-.08-.67-.18-1.33-.29-1.99-.11-.66-.24-1.32-.39-1.97-.15-.65-.31-1.3-.49-1.95-.18-.65-.37-1.29-.59-1.92-.21-.63-.44-1.26-.68-1.89-.24-.62-.5-1.24-.77-1.85-.27-.61-.56-1.22-.86-1.81-.32-.62-.65-1.24-1-1.84-.35-.61-.71-1.2-1.09-1.79-.38-.59-.77-1.16-1.18-1.73-.41-.57-.83-1.13-1.27-1.67-.44-.55-.89-1.08-1.35-1.61-.46-.52-.94-1.04-1.43-1.54-.49-.5-.99-.99-1.5-1.46-.51-.47-1.04-.94-1.57-1.39-.54-.45-1.08-.88-1.64-1.31-.56-.42-1.13-.83-1.7-1.22-.58-.39-1.17-.77-1.76-1.14-.6-.36-1.2-.71-1.82-1.04-.62-.33-1.24-.65-1.87-.95-.63-.3-1.27-.59-1.91-.86-.64-.27-1.3-.52-1.95-.76-.66-.24-1.32-.46-1.99-.66-7.23-2.24-14.37-2.21-21.83-1.54-3.06-11.86-18.77-80.39-24.01-85.58-2.57-1.13-3.93-1.19-6.61-.4l-75.19,78.08-65.58,16.32c-11.67,2.93-25.43,5.04-36.22,10.27-3.8,1.84-7.15,4.86-9.24,8.54-3.83,6.73-2.63,13.83-1.07,20.97-8.03,2.33-15.88,4.8-20.31,12.61-2.17,3.81-2.97,8.11-2.77,12.46.42,9.48,8.47,37.83,11.46,47.89,2,6.71,5.73,13.42,12.19,16.69,7.26,3.67,14.43,2.22,21.85.27ZM311.18,175.12c6.9-.69,13.22-.1,19.51,3.05.45.22.89.46,1.32.7.44.25.86.5,1.29.77.42.27.84.54,1.25.83.41.29.81.58,1.21.89.39.31.78.62,1.16.95.38.33.75.66,1.11,1,.36.34.71.7,1.06,1.06.34.36.68.73,1,1.11.33.38.64.76.95,1.16.31.39.6.8.89,1.21.29.41.56.82.83,1.25.27.42.52.85.77,1.29.24.44.48.88.7,1.32.22.45.43.9.63,1.36.2.46.39.92.56,1.39.18.47.34.94.49,1.41,2.88,8.96.91,16.44-3.26,24.46-4.24,6.4-9.79,9.5-16.56,12.7-5.35-19.17-9.97-38.62-14.92-57.91ZM212.13,162.91c21.87-22.63,43.09-46.06,65.63-68.02,2.83,6.6,4.2,14.72,6,21.72l11.32,44.49,39.46,155.96c-19.1-5.09-38.02-11.57-56.9-17.46-11.26-3.47-22.53-6.87-33.58-10.97l-31.92-125.74ZM200.94,168.15l30.66,120.54-67.66,17.32-30.79-120.72,67.79-17.14ZM193.98,311.35c8.46,12.39,15.64,26.16,23.25,39.13,6.51,11.1,15.28,23.23,19.65,35.22,2.2,6.04.93,10.33-1.7,15.85-1.67,2.32-3.69,4.57-6.11,6.12-4.26,2.73-9.39,4.07-14.39,2.86-4.7-1.14-8.13-4.17-11.27-7.68-7.03-7.83-12.55-17.67-18.52-26.37-12.17-17.74-24.5-35.38-36.06-53.53,14.92-4.24,30.12-7.76,45.15-11.6ZM100.42,200.45c.02-3.32,2.32-5.53,4.43-7.82,5.26-1.73,10.73-2.94,16.1-4.3,3.36,12.97,30.71,114.58,30.14,120.17-.05.54-.46.99-.7,1.48l-3.42,1.15c-3.2.94-6.68,2.19-9.99,2.48-3.32.3-5.43-.91-7.9-2.98-4.31-9.15-28.71-102.03-28.67-110.18ZM100.2,292.22c-2.72-.85-5-1.94-6.8-4.24-4.12-5.27-15.47-48.53-14.49-54.25.59-3.43,3.83-5.93,6.36-7.95,2.59-.51,4.86-.8,7.5-.64,2.9,5.07,15.63,56.11,16.4,64.06-2.4,1.87-6.05,2.33-8.98,3.04Z"/>
</svg>